<?xml version="1.0" encoding="utf-8"?>
<!-- Generator: Adobe Illustrator 28.0.0, SVG Export Plug-In . SVG Version: 6.00 Build 0)  -->
<svg version="1.1" id="Layer_1" xmlns="http://www.w3.org/2000/svg" xmlns:xlink="http://www.w3.org/1999/xlink" x="0px" y="0px"
	 width="570.3px" height="253.9px" viewBox="0 0 570.3 253.9" style="enable-background:new 0 0 570.3 253.9;" xml:space="preserve"
	>
<style type="text/css">
	.st0{enable-background:new    ;}
	.st1{fill:#FEA03B;}
</style>
<g class="st0">
	<path d="M72.3,198.5c-0.5,6.3-2.8,11.2-6.9,14.8c-4.2,3.6-9.7,5.4-16.5,5.4c-7.5,0-13.4-2.5-17.6-7.5s-6.4-11.9-6.4-20.7v-3.6
		c0-5.6,1-10.5,3-14.8c2-4.3,4.8-7.5,8.5-9.8c3.7-2.3,7.9-3.4,12.8-3.4c6.7,0,12.1,1.8,16.3,5.4c4.1,3.6,6.5,8.7,7.1,15.2h-12
		c-0.3-3.8-1.3-6.5-3.1-8.2s-4.5-2.5-8.2-2.5c-4,0-7,1.4-9,4.3c-2,2.9-3,7.3-3.1,13.4v4.4c0,6.3,1,10.9,2.9,13.8
		c1.9,2.9,4.9,4.4,9,4.4c3.7,0,6.5-0.8,8.3-2.5c1.8-1.7,2.9-4.3,3.1-7.9H72.3z"/>
	<path d="M77.7,195.9c0-4.3,0.8-8.1,2.5-11.5c1.7-3.4,4-6,7.1-7.8c3.1-1.8,6.7-2.8,10.8-2.8c5.8,0,10.6,1.8,14.3,5.4
		c3.7,3.6,5.8,8.4,6.2,14.6l0.1,3c0,6.6-1.9,12-5.6,16c-3.7,4-8.7,6-14.9,6s-11.2-2-15-6s-5.6-9.4-5.6-16.3V195.9z M89.2,196.7
		c0,4.1,0.8,7.3,2.3,9.4c1.5,2.2,3.8,3.3,6.6,3.3c2.8,0,5-1.1,6.6-3.2c1.6-2.2,2.4-5.6,2.4-10.3c0-4-0.8-7.2-2.4-9.4
		c-1.6-2.2-3.8-3.3-6.6-3.3c-2.8,0-5,1.1-6.6,3.3C90,188.6,89.2,192.1,89.2,196.7z"/>
	<path d="M138.1,217.9h-11.6v-61.5h11.6V217.9z"/>
	<path d="M145.8,195.9c0-4.3,0.8-8.1,2.5-11.5c1.7-3.4,4-6,7.1-7.8c3.1-1.8,6.7-2.8,10.8-2.8c5.8,0,10.6,1.8,14.3,5.4
		c3.7,3.6,5.8,8.4,6.2,14.6l0.1,3c0,6.6-1.9,12-5.6,16c-3.7,4-8.7,6-14.9,6s-11.2-2-15-6s-5.6-9.4-5.6-16.3V195.9z M157.4,196.7
		c0,4.1,0.8,7.3,2.3,9.4c1.5,2.2,3.8,3.3,6.6,3.3c2.8,0,5-1.1,6.6-3.2c1.6-2.2,2.4-5.6,2.4-10.3c0-4-0.8-7.2-2.4-9.4
		c-1.6-2.2-3.8-3.3-6.6-3.3c-2.8,0-5,1.1-6.6,3.3C158.1,188.6,157.4,192.1,157.4,196.7z"/>
	<path d="M218.3,185.4c-1.6-0.2-3-0.3-4.2-0.3c-4.4,0-7.2,1.5-8.6,4.4v28.3h-11.6v-43.3h10.9l0.3,5.2c2.3-4,5.5-6,9.6-6
		c1.3,0,2.5,0.2,3.6,0.5L218.3,185.4z"/>
	<path d="M270.4,198.5c-0.5,6.3-2.8,11.2-6.9,14.8c-4.2,3.6-9.7,5.4-16.5,5.4c-7.5,0-13.4-2.5-17.6-7.5s-6.4-11.9-6.4-20.7v-3.6
		c0-5.6,1-10.5,3-14.8c2-4.3,4.8-7.5,8.5-9.8c3.7-2.3,7.9-3.4,12.8-3.4c6.7,0,12.1,1.8,16.3,5.4c4.1,3.6,6.5,8.7,7.1,15.2h-12
		c-0.3-3.8-1.3-6.5-3.1-8.2s-4.5-2.5-8.2-2.5c-4,0-7,1.4-9,4.3c-2,2.9-3,7.3-3.1,13.4v4.4c0,6.3,1,10.9,2.9,13.8
		c1.9,2.9,4.9,4.4,9,4.4c3.7,0,6.5-0.8,8.3-2.5c1.8-1.7,2.9-4.3,3.1-7.9H270.4z"/>
	<path d="M289.7,217.9h-11.6v-61.5h11.6V217.9z"/>
	<path d="M297.4,195.9c0-4.3,0.8-8.1,2.5-11.5c1.7-3.4,4-6,7.1-7.8s6.7-2.8,10.8-2.8c5.8,0,10.6,1.8,14.3,5.4
		c3.7,3.6,5.8,8.4,6.2,14.6l0.1,3c0,6.6-1.9,12-5.6,16c-3.7,4-8.7,6-14.9,6s-11.2-2-15-6s-5.6-9.4-5.6-16.3V195.9z M309,196.7
		c0,4.1,0.8,7.3,2.3,9.4c1.5,2.2,3.8,3.3,6.6,3.3c2.8,0,5-1.1,6.6-3.2c1.6-2.2,2.4-5.6,2.4-10.3c0-4-0.8-7.2-2.4-9.4
		c-1.6-2.2-3.8-3.3-6.6-3.3c-2.8,0-5,1.1-6.6,3.3C309.8,188.6,309,192.1,309,196.7z"/>
	<path d="M371.6,213.5c-2.9,3.5-6.8,5.2-11.9,5.2c-4.6,0-8.2-1.3-10.6-4c-2.4-2.7-3.7-6.6-3.7-11.7v-28.4h11.6v28
		c0,4.5,2.1,6.8,6.2,6.8c3.9,0,6.6-1.4,8.1-4.1v-30.7h11.6v43.3h-10.9L371.6,213.5z"/>
	<path d="M389.7,195.9c0-6.8,1.5-12.1,4.5-16.1s7.2-6,12.4-6c4.2,0,7.7,1.6,10.5,4.7v-22.1h11.6v61.5h-10.5l-0.6-4.6
		c-2.9,3.6-6.6,5.4-11.1,5.4c-5.1,0-9.2-2-12.3-6S389.7,203.1,389.7,195.9z M401.3,196.8c0,4.1,0.7,7.2,2.1,9.3
		c1.4,2.2,3.5,3.2,6.2,3.2c3.6,0,6.1-1.5,7.6-4.5v-17.1c-1.4-3-3.9-4.5-7.5-4.5C404.1,183.2,401.3,187.7,401.3,196.8z"/>
</g>
<circle cx="457.1" cy="126.4" r="13"/>
<circle class="st1" cx="457.1" cy="86.7" r="13"/>
<circle cx="457.1" cy="47" r="13"/>
<circle class="st1" cx="457.1" cy="166.1" r="13"/>
<circle cx="457.1" cy="205.7" r="13"/>
<circle class="st1" cx="496.6" cy="126.7" r="15.1"/>
<circle cx="496.6" cy="87.3" r="15.1"/>
<circle cx="496.6" cy="166.1" r="15.1"/>
<circle cx="535.7" cy="126.7" r="17.1"/>
<circle cx="417.4" cy="126.4" r="11.3"/>
<circle cx="417.4" cy="86.7" r="11.3"/>
<g class="st0">
	<path d="M91.9,141.3l-6.9-22H47.8l-7.4,22H25.1L65.8,35.7h3.6l37.7,105.6H91.9z M66.9,63l-15.5,45.9h29.7L66.9,63z"/>
	<path d="M117.6,119.7V33.9h13v83.5c0,4.1,1.1,7.3,3.4,9.6s5.2,3.5,8.9,3.5v12.1C126.1,142.7,117.6,135.1,117.6,119.7z"/>
	<path d="M225.6,142.7h-3.4l-21.5-51.8l-21.4,51.8h-3.4l-26.2-77.8h13.9l15.7,50l19.5-50h3.4l20.1,50l16.8-50h12.8L225.6,142.7z"/>
	<path d="M303.4,132.5c-5.2,6.8-13.1,10.2-23.9,10.2c-5.7,0-10.7-2.2-14.9-6.5c-4.2-4.3-6.3-9.7-6.3-16.2c0-7.7,3.2-14.3,9.7-19.6
		c6.5-5.3,14.8-8,24.8-8c2.7,0,5.8,0.6,9.3,1.8c0-12.3-5.3-18.5-15.9-18.5c-8.1,0-14.4,2.3-18.7,6.8l-5.5-11.3
		c2.5-2.1,5.9-3.9,10.2-5.4c4.4-1.5,8.5-2.2,12.5-2.2c10.6,0,18.3,2.5,23.1,7.5c4.8,5,7.2,13,7.2,24v27.3c0,6.7,1.9,11.1,5.7,13.4
		v6.8c-5.3,0-9.2-0.8-11.9-2.3C306.5,138.7,304.6,136.1,303.4,132.5z M302.2,103.9c-4.1-0.9-7-1.4-8.6-1.4c-6.6,0-11.9,1.8-16.1,5.3
		c-4.1,3.5-6.2,7.7-6.2,12.4c0,7.9,4.5,11.9,13.5,11.9c6.6,0,12.4-3.2,17.4-9.7V103.9z"/>
	<path d="M380.7,141.3V97c0-8.1-1.2-13.8-3.5-17c-2.3-3.2-6.3-4.9-11.8-4.9c-3,0-6.1,0.9-9.3,2.8c-3.2,1.8-5.7,4.1-7.5,6.8v56.6h-13
		V65.1h8.9l4.1,9.8c4.3-7.5,11.3-11.2,21-11.2c16,0,24.1,10.1,24.1,30.4v47.1H380.7z"/>
</g>
</svg>
