<svg width="57" height="55" viewBox="0 0 57 55" fill="none" xmlns="http://www.w3.org/2000/svg">
<path d="M23.5934 19.0298C22.7134 18.6998 21.8334 18.5898 20.8434 18.5898C20.1834 18.5898 19.7434 18.5898 19.1934 18.5898C18.7534 18.5898 18.4234 18.5898 18.2034 18.5898V26.5098C18.5334 26.5098 18.8634 26.5098 19.0834 26.5098H20.2934C21.1734 26.5098 22.1634 26.3998 23.0434 26.0698C23.8134 25.8498 24.4734 25.4098 25.0234 24.8598C25.4634 24.3098 25.7934 23.4298 25.7934 22.4398C25.7934 21.6698 25.6834 21.0098 25.2434 20.3498C24.9134 19.7998 24.2534 19.3598 23.5934 19.0298Z" fill="white"/>
<path d="M46.9134 0H10.5034C5.00342 0 0.493408 4.51001 0.493408 10.01V44.99C0.493408 50.49 5.00342 55 10.5034 55H46.9134C52.4134 55 56.9234 50.49 56.9234 44.99V10.01C56.9234 4.40001 52.4134 0 46.9134 0ZM29.5334 27.39C28.5434 28.71 27.2234 29.7 25.7934 30.25C24.1434 30.8 22.3834 31.02 20.5134 31.02C19.9634 31.02 19.5234 31.02 19.3034 31.02C19.0834 31.02 18.7534 31.02 18.3134 31.02V38.61C18.3134 38.72 18.2034 38.94 18.0934 38.94C18.0934 38.94 18.0934 38.94 17.9834 38.94H13.4734C13.2534 38.94 13.1434 38.83 13.1434 38.61V14.41C13.1434 14.3 13.2534 14.19 13.3634 14.19C13.8034 14.19 14.1334 14.19 14.6834 14.19C15.2334 14.19 15.7834 14.19 16.4434 14.19C17.1034 14.19 17.7634 14.19 18.5334 14.19C19.3034 14.19 19.9634 14.19 20.6234 14.19C22.6034 14.19 24.1434 14.41 25.4634 14.96C26.6734 15.4 27.7734 16.06 28.6534 16.94C29.4234 17.71 29.9734 18.59 30.4134 19.58C30.7434 20.57 30.9634 21.56 30.9634 22.66C30.9634 24.31 30.4134 26.07 29.5334 27.39ZM46.1434 36.52C45.4834 37.51 44.6034 38.17 43.5034 38.61C42.4034 39.05 40.9734 39.38 39.2134 39.38C38.1134 39.38 37.1234 39.27 36.0234 39.05C35.2534 38.94 34.3734 38.61 33.6034 38.28C33.4934 38.17 33.2734 38.06 33.3834 37.84V33.77C33.3834 33.66 33.3834 33.66 33.4934 33.55C33.6034 33.55 33.6034 33.55 33.7134 33.55C34.5934 34.1 35.5834 34.43 36.5734 34.65C37.4534 34.87 38.4434 34.98 39.3234 34.98C40.2034 34.98 40.8634 34.87 41.3034 34.65C41.6334 34.54 41.9634 34.1 41.9634 33.66C41.9634 33.33 41.7434 33 41.4134 32.67C41.0834 32.34 40.3134 32.01 39.1034 31.57C37.8934 31.13 36.7934 30.58 35.8034 29.92C35.0334 29.37 34.4834 28.71 34.0434 27.94C33.7134 27.17 33.4934 26.4 33.4934 25.52C33.4934 24.53 33.8234 23.54 34.2634 22.66C34.8134 21.67 35.6934 21.01 36.6834 20.46C37.7834 19.91 39.2134 19.69 40.8634 19.69C41.8534 19.69 42.8434 19.8 43.7234 19.91C44.3834 20.02 45.1534 20.24 45.7034 20.46C45.8134 20.46 45.9234 20.57 45.9234 20.68C45.9234 20.79 45.9234 20.9 45.9234 21.01V24.86C45.9234 24.97 45.9234 25.08 45.8134 25.08C45.5934 25.08 45.4834 25.08 45.3734 25.08C44.7134 24.75 43.9434 24.42 43.0634 24.31C42.1834 24.09 41.3034 23.98 40.4234 23.98C39.9834 23.98 39.4334 23.98 38.9934 24.09C38.6634 24.2 38.4434 24.31 38.2234 24.53C38.1134 24.75 38.0034 24.97 38.0034 25.19C38.0034 25.41 38.1134 25.63 38.2234 25.85C38.4434 26.07 38.6634 26.29 38.9934 26.51C39.5434 26.84 40.0934 27.06 40.6434 27.28C41.9634 27.72 43.1734 28.27 44.2734 29.04C45.0434 29.48 45.7034 30.14 46.1434 31.02C46.4734 31.79 46.6934 32.56 46.6934 33.44C47.1334 34.43 46.8034 35.53 46.1434 36.52Z" fill="white"/>
</svg>
