<svg width="57" height="55" viewBox="0 0 57 55" fill="none" xmlns="http://www.w3.org/2000/svg">
<path d="M24.8134 24.4203C24.5934 23.6503 24.3734 22.9903 24.1534 22.2203C23.9334 21.4503 23.7134 20.7903 23.4934 20.1303C23.2734 19.4703 23.1634 18.8103 22.9434 18.2603C22.7234 19.2503 22.5034 20.2403 22.1734 21.3403C21.8434 22.4403 21.5134 23.6503 21.0734 24.8603C20.7434 26.0703 20.4134 27.1703 20.0834 28.1603H26.0234C25.9134 27.7203 25.6934 27.0603 25.4734 26.5103C25.2534 25.7403 25.0334 25.0803 24.8134 24.4203Z" fill="white"/>
<path d="M46.4833 0H10.0734C4.57335 0 0.0633545 4.51 0.0633545 10.01V44.99C0.0633545 50.49 4.57335 55 10.0734 55H46.4833C51.9833 55 56.4933 50.49 56.4933 44.99V9.9C56.4933 4.4 52.0933 0 46.4833 0ZM34.6033 38.72H29.6533C29.5433 38.72 29.3234 38.61 29.3234 38.5L27.3434 32.89H18.6534L16.8934 38.39C16.8934 38.61 16.6734 38.72 16.4534 38.72H12.0534C11.8334 38.72 11.7233 38.61 11.8333 38.28L19.4233 16.5C19.5333 16.28 19.5334 16.06 19.6434 15.73C19.7534 15.29 19.7534 14.74 19.7534 14.19C19.7534 14.08 19.8633 13.97 19.9733 13.97H26.0234C26.2434 13.97 26.3533 14.08 26.3533 14.19L34.9333 38.39C34.9333 38.61 34.8233 38.72 34.6033 38.72ZM42.7433 38.5C42.7433 38.72 42.6333 38.83 42.4133 38.83H37.7934C37.5734 38.83 37.4633 38.72 37.4633 38.5V20.35C37.4633 20.13 37.5734 20.02 37.7934 20.02H42.4133C42.6333 20.02 42.7433 20.13 42.7433 20.35V38.5ZM42.1933 17.27C41.6433 17.82 40.8733 18.15 40.1033 18.04C39.3333 18.04 38.5633 17.71 38.0133 17.27C37.4633 16.72 37.2434 15.95 37.2434 15.07C37.2434 14.3 37.5734 13.53 38.1234 12.98C38.6734 12.43 39.4433 12.21 40.2133 12.21C41.0933 12.21 41.8633 12.54 42.3033 12.98C42.8533 13.53 43.0734 14.3 43.0734 15.07C43.0734 15.84 42.7433 16.61 42.1933 17.27Z" fill="white"/>
</svg>
