<svg width="58" height="55" viewBox="0 0 58 55" fill="none" xmlns="http://www.w3.org/2000/svg">
<path d="M42.1032 24.0898C41.2232 24.0898 40.2332 24.3099 39.4632 24.7499C38.6932 25.1899 38.0332 25.7398 37.4832 26.5098C36.9332 27.2798 36.7132 28.2698 36.7132 29.4798C36.7132 30.2498 36.8232 31.1299 37.1532 31.8999C37.3732 32.5599 37.7032 33.1099 38.2532 33.5499C38.6932 33.9899 39.2432 34.3198 39.9032 34.5398C40.5632 34.7598 41.2232 34.8698 41.8832 34.8698C42.2132 34.8698 42.5432 34.8698 42.8732 34.8698C43.2032 34.8698 43.4232 34.8698 43.7532 34.7598V24.4198C43.5332 24.4198 43.3132 24.3098 43.0932 24.3098C42.5432 24.0898 42.3232 24.0898 42.1032 24.0898Z" fill="white"/>
<path d="M47.0533 0H10.6433C5.1433 0 0.633301 4.50999 0.633301 10.01V44.99C0.633301 50.49 5.1433 55 10.6433 55H47.0533C52.5533 55 57.0633 50.49 57.0633 44.99V10.01C57.0633 4.50999 52.5533 0 47.0533 0ZM30.8833 38.72C30.8833 38.83 30.7733 38.72 30.6633 38.72H25.2733C24.9433 38.72 24.6133 38.72 24.5033 38.5C24.0633 37.51 23.5133 36.52 22.9633 35.53C22.5233 34.54 21.9733 33.55 21.3133 32.56C20.6533 31.57 20.2133 30.58 19.6633 29.48C19.2233 30.47 18.6733 31.46 18.1233 32.56C17.5733 33.66 17.0233 34.54 16.4733 35.53C15.9233 36.52 15.3733 37.51 14.8233 38.5C14.7133 38.72 14.4933 38.72 14.2733 38.72H9.1033C8.9933 38.72 8.9933 38.72 8.9933 38.61C8.9933 38.5 8.9933 38.39 8.9933 38.39L16.2533 26.4L9.1033 14.3C8.9933 14.19 8.9933 14.08 9.1033 14.08C9.1033 13.97 9.21329 13.97 9.32329 13.97H14.7133C14.8233 13.97 14.9333 13.97 15.0433 13.97C15.1533 13.97 15.1533 14.08 15.2633 14.19C15.7033 15.18 16.2533 16.17 16.8033 17.27C17.3533 18.26 17.9033 19.25 18.4533 20.24C19.0033 21.23 19.5533 22.22 19.9933 23.21C20.4333 22.22 20.9833 21.12 21.5333 20.13C22.0833 19.14 22.6333 18.15 23.1833 17.16C23.7333 16.17 24.2833 15.18 24.7233 14.19C24.7233 14.08 24.8333 13.97 24.8333 13.97C24.9433 13.97 25.0533 13.86 25.1633 13.97H30.1133C30.2233 13.97 30.3333 13.97 30.3333 14.08C30.3333 14.08 30.3333 14.19 30.2233 14.19L23.1833 25.85L30.6633 38.17C30.8833 38.61 30.8833 38.61 30.8833 38.72ZM48.5933 37.84C47.3833 38.39 46.0633 38.72 44.7433 38.94C43.5333 39.16 42.3233 39.27 41.1133 39.27C39.3533 39.27 37.5933 38.94 36.0533 38.17C34.6233 37.51 33.3033 36.41 32.5333 34.98C31.6533 33.55 31.2133 31.79 31.2133 29.59C31.2133 27.83 31.6533 26.18 32.5333 24.64C33.4133 23.1 34.7333 21.89 36.2733 21.01C37.9233 20.13 39.9033 19.69 42.2133 19.69C42.3233 19.69 42.5433 19.69 42.6533 19.69C42.8733 19.69 43.0933 19.69 43.4233 19.69V12.21C43.4233 12.1 43.5333 11.99 43.6433 11.99H48.3733C48.4833 11.99 48.5933 12.1 48.5933 12.1V34.43C48.5933 34.87 48.5933 35.31 48.5933 35.86C48.5933 36.3 48.7033 36.85 48.7033 37.18C48.8133 37.62 48.8133 37.73 48.5933 37.84Z" fill="white"/>
</svg>
