<svg width="50" height="55" viewBox="0 0 50 55" fill="none" xmlns="http://www.w3.org/2000/svg">
<path d="M41.8213 26.1587H39.2907V28.6893H41.8213V26.1587Z" fill="white"/>
<path d="M49.6333 16.1464C49.6333 15.2662 49.4133 14.386 49.0832 13.7258C48.6431 13.0656 48.0929 12.4055 47.3228 11.9654C40.8312 8.22449 34.2296 4.48358 27.738 0.742678C25.9776 -0.247559 24.3272 -0.247559 22.5668 0.742678C19.9262 2.28305 6.94305 9.76486 3.09213 11.9654C1.55176 12.8456 0.67157 14.2759 0.67157 16.1464C0.67157 23.7382 0.67157 31.22 0.67157 38.8118C0.67157 39.692 0.891623 40.5722 1.2217 41.2324C1.66181 41.8926 2.21191 42.5527 2.9821 42.9928C6.83302 45.1934 19.8162 52.6751 22.4568 54.2155C24.2172 55.2058 25.8676 55.3158 27.628 54.2155C34.1196 50.4746 40.6111 46.7337 47.2127 42.9928C47.9829 42.5527 48.6431 41.8926 48.9732 41.2324C49.3032 40.5722 49.5233 39.692 49.5233 38.8118C49.6333 38.8118 49.6333 23.7382 49.6333 16.1464ZM25.4275 45.6335H25.2074C18.4958 45.6335 12.5544 42.0026 9.47368 36.5013C7.93331 33.8606 7.05309 30.7799 7.05309 27.4791C7.05309 17.4667 15.195 9.32474 25.2074 9.32474C31.9191 9.32474 37.7504 12.9556 40.9412 18.3469L33.0193 22.858C31.479 20.2174 28.6183 18.4569 25.3175 18.3469H25.2074C20.2563 18.3469 16.1853 22.4179 16.1853 27.3691C16.1853 29.0195 16.6254 30.5598 17.3956 31.8802C18.9359 34.6308 21.9067 36.3912 25.2074 36.3912C28.6183 36.3912 31.589 34.5208 33.1294 31.7701V31.8802L41.0512 36.5013C37.9705 41.8926 32.1391 45.6335 25.4275 45.6335ZM45.7824 26.1588H43.2518V28.6894H45.7824V30.0097H43.2518V32.5403H41.9315V30.0097H39.4008V32.5403H38.0805V30.0097H35.5499V28.6894H38.0805V26.1588H35.5499V24.8385H38.0805V22.3079H39.4008V24.8385H41.9315V22.3079H43.2518V24.8385H45.7824V26.1588Z" fill="white"/>
</svg>
