<svg width="84" height="55" viewBox="0 0 84 55" fill="none" xmlns="http://www.w3.org/2000/svg">
<path d="M14.556 35.2393C13.8973 35.2393 13.3484 35.7882 13.3484 36.4468V41.7163C12.031 40.5087 10.2745 39.85 8.62783 39.85C8.51805 39.85 8.29846 39.85 8.18868 39.85C7.53 39.85 6.54202 39.9598 5.55399 40.3989C3.02904 41.4967 1.38232 43.6923 0.943194 46.5466C0.613852 49.2912 1.71163 51.8161 3.79746 53.3531C5.22461 54.3411 6.76159 54.89 8.51808 54.89C9.17676 54.89 9.83543 54.7802 10.4941 54.6704C12.6897 54.1215 14.4462 52.5846 15.3244 50.6085C15.7635 49.6205 15.9831 48.5227 15.9831 47.5347C15.9831 47.4249 15.9831 47.3151 15.9831 47.2053V36.4468C15.7636 35.7882 15.2147 35.2393 14.556 35.2393ZM13.2386 47.5347C13.2386 48.1934 13.019 48.9618 12.7995 49.5107C12.2506 50.8281 11.1528 51.8161 9.61589 52.1455C8.07896 52.5846 6.43221 52.2552 5.11484 51.2672C3.79747 50.2792 3.029 48.5227 3.24856 46.7662C3.46812 44.8999 4.56598 43.363 6.32247 42.7043C6.76159 42.4848 7.31044 42.375 8.18868 42.375C8.29846 42.375 8.29848 42.375 8.40826 42.375C8.40826 42.375 8.4083 42.375 8.51808 42.375C10.055 42.375 11.4822 43.1435 12.3604 44.4608C12.9093 45.2293 13.2386 46.2173 13.2386 47.2053V47.5347Z" fill="white"/>
<path d="M43.6479 51.7064C42.111 52.5846 40.2448 52.5846 38.7078 51.7064C37.1709 50.8282 36.2926 49.2912 36.2926 47.5347C36.2926 43.8022 38.8176 42.3751 41.0132 42.3751C41.123 42.3751 41.2328 42.3751 41.2328 42.3751C42.2208 42.3751 42.9892 42.5946 43.5381 42.924C44.087 43.2533 44.8555 43.1435 45.2947 42.5946C45.624 42.0457 45.5142 41.2772 44.9653 40.8381C43.9772 40.1794 42.6599 39.8501 41.2328 39.8501C41.123 39.8501 41.0132 39.8501 40.9034 39.8501C37.5002 39.9599 33.7677 42.4848 33.7677 47.5347C33.7677 50.2793 35.1948 52.5846 37.3904 53.902C38.4883 54.5607 39.8056 54.89 41.1229 54.89C42.4403 54.89 43.7577 54.5607 44.8555 53.902C45.4044 53.5727 45.624 52.8042 45.2947 52.1455C45.0751 51.5966 44.3066 51.3771 43.6479 51.7064Z" fill="white"/>
<path d="M82.51 39.96C80.6437 39.96 78.8872 40.6187 77.5699 41.8262C75.2645 43.6925 75.0449 46.2175 75.0449 48.4131V53.6825C75.0449 54.3412 75.5938 54.8901 76.2525 54.8901C76.9112 54.8901 77.4601 54.3412 77.4601 53.5728V48.3033C77.4601 45.9979 77.8992 44.6805 79.1068 43.6925C79.1068 43.6925 79.1068 43.6925 79.2166 43.6925C80.0948 42.924 81.1926 42.4849 82.51 42.4849C83.1687 42.4849 83.7176 41.936 83.7176 41.1676C83.8274 40.5089 83.2784 39.96 82.51 39.96Z" fill="white"/>
<path d="M24.7655 39.8501C24.6557 39.8501 24.5459 39.8501 24.5459 39.8501H24.4361C22.3503 39.8501 20.3742 40.9479 19.0569 42.5946C17.6297 44.4609 17.0808 46.876 17.5199 49.0717C17.959 51.1575 19.2764 52.914 21.2525 53.902C22.4601 54.5607 23.6677 54.89 24.985 54.89C25.7535 54.89 26.5219 54.7802 27.2904 54.5607C29.3762 54.0118 31.1327 52.3651 32.011 50.2793C32.8892 47.9739 32.6697 45.4489 31.3523 43.3631C29.7056 41.1675 27.2904 39.8501 24.7655 39.8501ZM29.3763 49.2912C28.8274 50.7184 27.7295 51.7064 26.3024 52.1455H26.1926C24.8752 52.5846 23.4481 52.4749 22.2405 51.7064C21.0329 51.0477 20.0449 49.8401 19.8253 48.5228C19.496 47.0956 19.8253 45.4489 20.8133 44.2413C21.6916 43.1435 23.009 42.4848 24.3263 42.3751C24.4361 42.3751 24.5459 42.3751 24.5459 42.3751H24.6556H24.7655C26.4122 42.3751 27.9491 43.2533 28.9371 44.6804C29.9251 45.9978 30.0349 47.7543 29.3763 49.2912Z" fill="white"/>
<path d="M51.4421 47.4249L56.7116 42.0456C57.1507 41.4967 57.1507 40.7283 56.7116 40.2892C56.1627 39.85 55.3942 39.85 54.9551 40.2892L50.8932 44.351V36.4468C50.8932 35.7882 50.3443 35.2393 49.6857 35.2393C49.027 35.2393 48.478 35.7882 48.478 36.5566V47.5347V53.6824C48.478 54.3411 49.027 54.89 49.6857 54.89C50.3443 54.89 50.8932 54.3411 50.8932 53.6824V50.6085L54.9551 54.6704C55.1747 54.89 55.504 54.9998 55.8333 54.9998C56.1627 54.9998 56.492 54.89 56.7116 54.6704C57.1507 54.2313 57.1507 53.353 56.7116 52.9139L51.4421 47.4249Z" fill="white"/>
<path d="M72.0808 42.924C70.6536 40.9479 68.3482 39.8501 65.8233 39.8501C62.8592 39.8501 60.1147 41.7164 58.9071 44.5707C57.6995 47.5347 58.5778 50.7184 61.1027 53.1335C61.5418 53.5727 62.0908 53.902 62.8592 54.1216C63.7375 54.5607 64.945 54.7802 66.0428 54.7802C67.3602 54.7802 68.7874 54.4509 69.7754 53.6824C70.3243 53.2433 70.4341 52.4749 69.995 51.926C69.5559 51.3771 68.7873 51.2673 68.2384 51.7064C67.3602 52.3651 65.6037 52.4749 64.1766 52.0357C67.47 49.1814 72.1906 45.2293 72.1906 45.2293C72.6297 44.9 72.7395 44.2413 72.5199 43.6924C72.5199 43.5826 72.3003 43.1435 72.0808 42.924ZM62.2005 50.4988C60.9929 48.9619 60.6636 47.2054 61.3223 45.4489C62.0907 43.5826 63.8472 42.2653 65.8233 42.2653C67.3602 42.2653 68.7874 42.8142 69.7754 43.912C68.2385 45.4489 64.7255 48.413 62.2005 50.4988Z" fill="white"/>
<path d="M42.5501 0H37.8295V4.72057H42.5501V0ZM38.5979 4.39122H38.2686V0.439115H38.5979V4.39122ZM39.2567 4.39122H38.9273V0.439115H39.2567V4.39122ZM40.0251 4.39122H39.6958V0.439115H40.0251V4.39122ZM40.6838 4.39122H40.3545V0.439115H40.6838V4.39122ZM41.4523 4.39122H41.1229V0.439115H41.4523V4.39122ZM42.2207 4.39122H41.8914V0.439115H42.2207V4.39122Z" fill="white"/>
<path d="M26.0829 10.978H21.3623V15.6986H26.0829V10.978ZM22.021 15.3692H21.6917V11.4171H22.021V15.3692ZM22.7895 15.3692H22.4601V11.4171H22.7895V15.3692ZM23.4482 15.3692H23.1188V11.4171H23.4482V15.3692ZM24.2166 15.3692H23.8873V11.4171H24.2166V15.3692ZM24.9851 15.3692H24.6557V11.4171H24.9851V15.3692ZM25.6438 15.3692H25.3144V11.4171H25.6438V15.3692Z" fill="white"/>
<path d="M31.5719 5.48926H26.8513V10.2098H31.5719V5.48926ZM27.6198 9.88048H27.2905V5.92837H27.6198V9.88048ZM28.2785 9.88048H27.9491V5.92837H28.2785V9.88048ZM29.0469 9.88048H28.7176V5.92837H29.0469V9.88048ZM29.8154 9.88048H29.4861V5.92837H29.8154V9.88048ZM30.4741 9.88048H30.1447V5.92837H30.4741V9.88048ZM31.2425 9.88048H30.9132V5.92837H31.2425V9.88048Z" fill="white"/>
<path d="M31.5719 10.978H26.8513V15.6986H31.5719V10.978ZM27.6198 15.3692H27.2905V11.4171H27.6198V15.3692ZM28.2785 15.3692H27.9491V11.4171H28.2785V15.3692ZM29.0469 15.3692H28.7176V11.4171H29.0469V15.3692ZM29.8154 15.3692H29.4861V11.4171H29.8154V15.3692ZM30.4741 15.3692H30.1447V11.4171H30.4741V15.3692ZM31.2425 15.3692H30.9132V11.4171H31.2425V15.3692Z" fill="white"/>
<path d="M37.0611 10.978H32.3405V15.6986H37.0611V10.978ZM33.1089 15.3692H32.7796V11.4171H33.1089V15.3692ZM33.7677 15.3692H33.4383V11.4171H33.7677V15.3692ZM34.5361 15.3692H34.2067V11.4171H34.5361V15.3692ZM35.3045 15.3692H34.9752V11.4171H35.3045V15.3692ZM35.9633 15.3692H35.6339V11.4171H35.9633V15.3692ZM36.7317 15.3692H36.4023V11.4171H36.7317V15.3692Z" fill="white"/>
<path d="M37.0611 5.48926H32.3405V10.2098H37.0611V5.48926ZM33.1089 9.88048H32.7796V5.92837H33.1089V9.88048ZM33.7677 9.88048H33.4383V5.92837H33.7677V9.88048ZM34.5361 9.88048H34.2067V5.92837H34.5361V9.88048ZM35.3045 9.88048H34.9752V5.92837H35.3045V9.88048ZM35.9633 9.88048H35.6339V5.92837H35.9633V9.88048ZM36.7317 9.88048H36.4023V5.92837H36.7317V9.88048Z" fill="white"/>
<path d="M42.5501 5.48926H37.8295V10.2098H42.5501V5.48926ZM38.5979 9.88048H38.2686V5.92837H38.5979V9.88048ZM39.2567 9.88048H38.9273V5.92837H39.2567V9.88048ZM40.0251 9.88048H39.6958V5.92837H40.0251V9.88048ZM40.6838 9.88048H40.3545V5.92837H40.6838V9.88048ZM41.4523 9.88048H41.1229V5.92837H41.4523V9.88048ZM42.2207 9.88048H41.8914V5.92837H42.2207V9.88048Z" fill="white"/>
<path d="M42.5501 10.978H37.8295V15.6986H42.5501V10.978ZM38.5979 15.3692H38.2686V11.4171H38.5979V15.3692ZM39.2567 15.3692H38.9273V11.4171H39.2567V15.3692ZM40.0251 15.3692H39.6958V11.4171H40.0251V15.3692ZM40.6838 15.3692H40.3545V11.4171H40.6838V15.3692ZM41.4523 15.3692H41.1229V11.4171H41.4523V15.3692ZM42.2207 15.3692H41.8914V11.4171H42.2207V15.3692Z" fill="white"/>
<path d="M48.0391 10.978H43.3185V15.6986H48.0391V10.978ZM44.087 15.3692H43.7576V11.4171H44.087V15.3692ZM44.7457 15.3692H44.4163V11.4171H44.7457V15.3692ZM45.5141 15.3692H45.1848V11.4171H45.5141V15.3692ZM46.1728 15.3692H45.8435V11.4171H46.1728V15.3692ZM46.9413 15.3692H46.6119V11.4171H46.9413V15.3692ZM47.7097 15.3692H47.3804V11.4171H47.7097V15.3692Z" fill="white"/>
<path d="M60.5539 15.479C61.1028 15.479 61.542 15.5888 62.0909 15.479C64.6158 15.3692 66.7016 14.491 68.019 12.2954C68.019 12.0758 67.7994 12.0758 67.6897 12.0758C66.1527 11.3073 64.6158 11.3074 62.9691 11.6367C62.4202 11.7465 61.8713 11.966 61.2126 12.1856C61.2126 11.6367 61.2126 11.1976 61.2126 10.7584C60.8833 9.11174 60.005 7.79438 58.7975 6.69657C58.1388 6.03789 58.029 6.03788 57.5898 6.91613C56.9311 8.34328 56.8214 9.77042 57.0409 11.3074C57.2605 12.2954 57.5899 13.2834 58.2486 14.0519C58.6877 14.491 58.6876 14.491 58.1387 14.9301C56.1627 16.2475 53.9671 16.7964 51.6617 16.7964C40.2445 16.7964 28.7176 16.7964 17.3004 16.7964C16.4222 16.7964 16.4221 16.7964 16.4221 17.6746C16.4221 18.1137 16.4221 18.6626 16.4221 19.1018C16.4221 19.4311 16.5319 19.7605 16.5319 20.0898C16.5319 20.3094 16.6417 20.3094 16.7515 20.3094C17.1906 20.3094 17.6297 20.3093 18.0688 20.1996C19.1666 20.0898 20.2645 19.8702 21.2525 19.1018C21.3623 18.992 21.4721 18.992 21.4721 19.1018C21.9112 19.6507 22.5698 19.8702 23.2285 19.98C25.8633 20.6387 28.498 20.4191 31.1327 19.7605C31.9012 19.5409 32.7794 19.3213 33.3284 18.5529C34.7555 19.98 36.6218 20.3094 38.4881 20.3094C40.4641 20.3094 42.2206 19.98 43.7575 18.5529C44.0868 19.1018 44.7456 19.3213 45.2945 19.5409C47.7096 20.3094 50.2345 20.4191 52.8693 20.0898C53.8573 19.98 54.7356 19.7605 55.504 18.992C55.6138 18.8822 55.6138 18.992 55.7236 18.992C56.3823 19.4311 57.1507 19.6507 57.8094 19.8702C58.029 19.98 58.1388 19.8702 58.2486 19.6507C58.9072 18.4431 59.5659 17.1257 60.005 15.8083C60.2246 15.5888 60.3344 15.479 60.5539 15.479Z" fill="white"/>
<path d="M17.1905 20.7485C17.0808 20.7485 17.0807 20.7485 16.971 20.7485C16.7514 20.7485 16.6417 20.8583 16.7515 21.0779C17.1906 23.1637 17.959 25.03 19.1666 26.6767C19.2764 26.7865 19.3862 26.8963 19.6057 26.8963C20.2644 26.8963 20.8133 27.006 21.472 27.006C23.2285 27.006 24.985 27.006 26.7415 26.6767C27.5099 26.5669 28.3882 26.3474 29.1566 26.1278C29.3762 26.018 29.4859 26.1278 29.5957 26.3473C29.7055 26.4571 29.7055 26.6767 29.486 26.7865C29.3762 26.8962 29.2664 26.8963 29.0468 27.006C26.6316 27.7745 24.1067 27.8843 21.5818 27.8843C21.0329 27.8843 20.484 27.7745 19.8253 27.8843C20.8133 28.9821 21.9111 29.8603 23.1187 30.6288C25.8632 32.2755 28.9371 33.044 32.2305 33.1537C32.9989 33.1537 33.6576 33.1537 34.4261 33.1537C35.4141 33.1537 36.4022 33.044 37.3902 32.9342C40.0249 32.6048 42.5499 32.0559 45.0748 31.1777C50.2345 29.2016 54.4062 26.018 57.3703 21.4072C57.48 21.2974 57.5898 21.1877 57.5898 20.9681C57.48 20.9681 57.3702 20.9681 57.1507 20.9681C43.8672 20.7485 30.5838 20.7485 17.1905 20.7485ZM31.2424 26.1278C30.474 26.1278 29.9251 25.5789 29.9251 24.8104C29.9251 24.1517 30.5837 23.493 31.2424 23.493C31.9011 23.493 32.5598 24.1517 32.5598 24.8104C32.5598 25.5789 32.0109 26.1278 31.2424 26.1278Z" fill="white"/>
<path d="M31.5718 24.4811C31.3522 24.2615 31.462 24.042 31.5718 23.9322C31.0229 23.8224 30.6935 23.9322 30.474 24.3713C30.2544 24.7006 30.3642 25.2495 30.6935 25.4691C31.0228 25.7984 31.462 25.7984 31.7913 25.5789C32.2304 25.3593 32.3402 24.9202 32.2304 24.3713C32.0109 24.5909 31.7914 24.7006 31.5718 24.4811Z" fill="white"/>
</svg>
