<svg width="38" height="55" viewBox="0 0 38 55" fill="none" xmlns="http://www.w3.org/2000/svg">
<path d="M9.73216 55.0002C14.7922 55.0002 18.8622 50.9302 18.8622 45.8702V36.7402H9.73216C4.67216 36.7402 0.602159 40.8102 0.602159 45.8702C0.492159 50.8202 4.67216 55.0002 9.73216 55.0002Z" fill="white"/>
<path opacity="0.9" d="M0.492188 27.5001C0.492188 22.4401 4.56219 18.3701 9.62219 18.3701H18.7522V36.7401H9.62219C4.67219 36.6301 0.492188 32.5601 0.492188 27.5001Z" fill="white"/>
<path d="M0.492188 9.13C0.492188 4.07 4.56219 0 9.62219 0H18.7522V18.37H9.62219C4.67219 18.26 0.492188 14.19 0.492188 9.13Z" fill="white"/>
<path opacity="0.9" d="M18.8621 0H27.9921C33.0521 0 37.1221 4.07 37.1221 9.13C37.1221 14.19 33.0521 18.26 27.9921 18.26H18.8621V0Z" fill="white"/>
<path d="M37.2321 27.5001C37.2321 32.5601 33.1621 36.6301 28.1021 36.6301C23.0421 36.6301 18.9721 32.5601 18.9721 27.5001C18.9721 22.4401 23.0421 18.3701 28.1021 18.3701C33.1621 18.3701 37.2321 22.4401 37.2321 27.5001Z" fill="white"/>
</svg>
