<svg width="197" height="55" viewBox="0 0 197 55" fill="none" xmlns="http://www.w3.org/2000/svg">
<path d="M27.5441 0H44.6215L15.9756 28.6459L8.48358 36.0277L0 27.5441L27.5441 0ZM27.3238 25.561C27.5441 25.2304 27.9848 25.4508 28.3154 25.3406H44.6215L29.7477 40.1043L21.2641 31.6207L27.3238 25.561Z" fill="white"/>
<path d="M68.5297 11.8989H87.1496V15.5348C82.3018 15.5348 77.454 15.5348 72.4961 15.5348C72.1655 15.6449 72.2757 16.0856 72.2757 16.4162V26.2219C72.3859 26.5524 72.8266 26.4422 73.1571 26.4422H85.6071V30.0781C81.7509 30.0781 77.8947 30.0781 73.9284 30.0781C73.3775 30.0781 72.7164 30.0781 72.1656 30.1882V44.0705C70.9536 44.0705 69.6315 44.0705 68.4196 44.0705V12.4498L68.5297 11.8989ZM91.6668 11.8989H95.523V33.8241V44.1807C94.311 44.1807 92.9889 44.1807 91.777 44.1807C91.6668 43.6298 91.6668 43.1891 91.6668 42.6382V11.8989ZM129.017 14.6533H132.873V21.1538C134.746 21.1538 136.619 21.0436 138.492 21.2639C138.492 22.4759 138.492 23.5776 138.492 24.7896C136.619 24.7896 134.746 24.7896 132.873 24.7896V37.6802C132.873 38.8922 133.203 40.3245 134.305 40.9855C135.627 41.7568 137.28 41.4263 138.492 40.655V44.401C137.06 45.0621 135.517 45.0621 134.085 44.9519C131.991 44.6214 130.008 43.1891 129.347 41.0957C128.906 39.994 129.017 38.782 129.017 37.5701V25.0099L128.906 24.8998C127.584 24.7896 126.262 24.8998 124.94 24.8998C124.94 23.6878 124.94 22.5861 124.94 21.3741C126.262 21.3741 127.584 21.4843 129.017 21.3741V14.6533ZM145.213 14.5432C146.535 14.5432 147.747 14.5432 149.069 14.5432L149.179 14.6533C149.179 16.7467 149.069 18.9502 149.179 21.0436C150.942 21.0436 152.815 21.0436 154.578 21.0436V24.5692C152.705 24.6794 150.942 24.5692 149.069 24.5692V37.6802C149.069 38.782 149.399 40.2143 150.501 40.7652C151.823 41.5364 153.476 41.0957 154.798 40.3245V44.0705C153.476 44.7315 151.933 44.8417 150.501 44.6214C148.628 44.401 146.755 43.2992 145.874 41.5364C145.433 40.655 145.213 39.6634 145.213 38.6718V24.459C143.89 24.459 142.568 24.459 141.246 24.459V20.9334C142.568 20.9334 143.89 20.9334 145.102 20.9334C145.323 18.9502 145.213 16.7467 145.213 14.5432ZM163.832 21.2639C166.477 20.1622 169.562 20.1622 172.206 21.0436C175.291 22.1454 177.715 24.7896 178.596 27.9847C179.147 29.7475 179.147 31.6205 179.037 33.3834H160.858C160.968 35.3665 161.629 37.3497 162.951 38.782C164.824 40.9855 168.129 41.8669 170.884 40.9855C172.867 40.4347 174.409 38.8922 175.401 37.2395C176.503 37.6802 177.605 38.3413 178.706 38.782C177.164 41.6466 174.409 43.9603 171.214 44.5112C168.57 44.9519 165.705 45.0621 163.282 43.7399C160.086 42.1975 157.993 39.0024 157.332 35.5869C156.891 32.9427 157.001 30.1882 157.993 27.6542C159.095 24.7896 161.188 22.3657 163.832 21.2639ZM165.265 24.5692C163.061 25.5608 161.629 27.8745 161.188 30.1882H175.181C174.96 28.6458 174.409 27.1033 173.308 26.0015C171.324 23.798 167.909 23.3573 165.265 24.5692ZM187.41 24.7896C188.843 21.2639 193.36 19.3909 196.885 20.8232V24.8998C195.453 24.3489 193.69 23.9082 192.148 24.459C190.054 25.1201 188.402 26.9931 187.851 29.0865C187.41 30.5188 187.631 31.9511 187.631 33.4935C187.52 35.3665 187.741 37.2395 187.631 39.1125C187.741 40.7652 187.52 42.4178 187.631 43.9603C186.308 44.0705 184.986 43.9603 183.774 43.9603C183.664 39.0024 183.774 34.1546 183.774 29.1966V20.9334C184.986 20.9334 186.198 20.9334 187.41 20.9334C187.41 22.3657 187.19 23.5776 187.41 24.7896ZM100.922 21.0436C102.244 21.0436 103.566 20.9334 104.778 21.1538V34.8157C104.778 36.4683 104.998 38.3413 106.21 39.6634C107.753 41.3161 110.287 41.6466 112.27 40.9855C115.024 39.9939 116.897 37.1294 116.787 34.2648V21.1538H120.643V44.1807C119.431 44.1807 118.219 44.1807 116.897 44.1807V40.8754C116.126 41.867 115.245 42.8585 114.143 43.5196C111.829 44.9519 108.854 45.1723 106.21 44.401C104.557 43.8501 103.015 42.7484 102.134 41.0957C101.142 39.3329 100.922 37.3497 100.811 35.3665L100.922 21.0436Z" fill="white"/>
<path opacity="0.8" d="M12.6704 40.1042L21.154 31.6206L29.6376 40.1042L21.0438 48.5878L12.6704 40.1042Z" fill="white"/>
<path opacity="0.9" d="M21.1538 48.6979L29.7476 40.2144L44.5113 54.978C38.8922 54.978 33.3834 54.978 27.7644 54.978C27.4339 55.0882 27.2135 54.7577 26.9932 54.5373L21.1538 48.6979Z" fill="white"/>
</svg>
