<svg width="58" height="55" viewBox="0 0 58 55" fill="none" xmlns="http://www.w3.org/2000/svg">
<path opacity="0.8" d="M56.3282 21.8099L56.2181 21.5897L48.4022 1.33437C48.2921 0.894042 47.9619 0.563798 47.6316 0.343632C46.6409 -0.316868 45.4299 0.01338 44.7694 1.00413C44.6593 1.2243 44.5493 1.33438 44.5493 1.55455L39.2652 17.6267H18.0192L12.7352 1.55455C12.4049 0.453713 11.3041 -0.20679 10.2033 0.12346C9.98312 0.12346 9.87304 0.233548 9.65287 0.343632C9.32262 0.563798 8.99236 0.894042 8.88228 1.33437L1.06639 21.5897L0.956265 21.8099C-1.35548 27.8645 0.626042 34.5795 5.79996 38.5425H5.91001L17.6889 47.4593L23.5233 51.8626L27.046 54.5046C27.9267 55.1651 29.1376 55.1651 29.9082 54.5046L33.4308 51.8626L39.2652 47.4593L51.1543 38.5425C56.6585 34.6896 58.5298 27.8645 56.3282 21.8099Z" fill="white"/>
<path d="M56.3282 21.81L56.2181 21.5898C52.4753 22.3604 48.8425 24.0117 45.7602 26.3234L28.6973 39.3133L39.5955 47.5695L51.4845 38.6528C56.6584 34.6898 58.5298 27.8646 56.3282 21.81Z" fill="white"/>
<path opacity="0.4" d="M17.799 47.4594L23.6334 51.8627L27.156 54.5047C28.0367 55.1652 29.2477 55.1652 30.0182 54.5047L33.5409 51.8627L39.3753 47.4594L28.477 39.2031L17.799 47.4594Z" fill="white"/>
<path d="M11.5243 26.3234C8.44197 24.0117 4.80922 22.3604 1.06639 21.5898L0.956265 21.81C-1.35548 27.8646 0.626042 34.5797 5.79996 38.5427H5.91001L17.6889 47.4594L28.5872 39.2032L11.5243 26.3234Z" fill="white"/>
</svg>
