<svg width="40" height="55" viewBox="0 0 40 55" fill="none" xmlns="http://www.w3.org/2000/svg">
<path d="M6.78159 7.37001V4.84H9.09163V7.37001H11.5116V0H9.09163V2.42001H6.78159V0H4.36157V7.37001H6.78159Z" fill="white"/>
<path d="M14.8116 2.42001V7.37001H17.3416V2.42001H19.4316V0H12.6116V2.42001H14.8116Z" fill="white"/>
<path d="M22.9515 3.74L24.7115 6.38L26.4715 3.74V7.37001H28.8915V0H26.3615L24.7115 2.53L23.1715 0H20.5315V7.37001H22.9515V3.74Z" fill="white"/>
<path d="M36.1516 4.95H32.6315V0H30.1016V7.37001H36.1516V4.95Z" fill="white"/>
<path d="M0.731567 10.7798L4.25158 50.5998L20.2016 54.9998L36.1516 50.5998L39.6716 10.7798H0.731567ZM32.3016 20.2398L32.0816 22.6598L31.9716 23.7598H20.2016H13.2716L13.7116 28.7098H20.2016H30.2116H31.5316L31.4216 30.0298L30.3216 42.8998L30.2116 43.6698L20.2016 46.4198L10.1916 43.6698L9.53157 35.9698H11.8416H14.4816L14.8116 39.8198L20.2016 41.2498L25.5916 39.8198L26.1416 33.4398H20.2016H9.31156L8.10158 20.0198L7.99161 18.6998H20.2016H32.4116L32.3016 20.2398Z" fill="white"/>
</svg>
