<svg width="56" height="55" viewBox="0 0 56 55" fill="none" xmlns="http://www.w3.org/2000/svg">
<path d="M0.92334 0V55H55.9233V0H0.92334ZM30.8434 42.9C30.8434 48.29 27.6534 50.71 23.1434 50.71C18.9634 50.71 16.6534 48.62 15.4434 45.98L19.6233 43.45C20.3933 44.88 21.1633 46.09 22.9233 46.09C24.5733 46.09 25.6733 45.43 25.6733 42.79V25.19H30.8434V42.9ZM43.0533 50.6C38.2133 50.6 35.1334 48.29 33.5934 45.32L37.7733 42.9C38.8733 44.66 40.3033 46.09 42.8333 46.09C44.9233 46.09 46.3533 44.99 46.3533 43.56C46.3533 41.8 44.9234 41.14 42.6134 40.15L41.2934 39.6C37.5534 38.06 35.1333 35.97 35.1333 31.79C35.1333 27.94 38.1033 24.97 42.7233 24.97C46.0233 24.97 48.3334 26.07 50.0934 29.15L46.0233 31.68C45.1433 30.14 44.1533 29.48 42.7233 29.48C41.1833 29.48 40.3033 30.47 40.3033 31.68C40.3033 33.22 41.2934 33.88 43.4934 34.87L44.8134 35.42C49.2134 37.29 51.6333 39.27 51.6333 43.56C51.6333 48.07 48.0033 50.6 43.0533 50.6Z" fill="white"/>
</svg>
