<svg width="93" height="55" viewBox="0 0 93 55" fill="none" xmlns="http://www.w3.org/2000/svg">
<path d="M22.3764 14.3H39.6464V15.62H23.9164V25.96H38.6564V27.28H23.9164V38.61H39.7564V39.93H22.2664V14.3H22.3764ZM41.1864 14.3H43.0564L51.1964 25.63L59.5564 14.3L70.8864 0L52.2964 26.84L61.8663 40.04H59.9964L51.3064 28.05L42.5064 40.04H40.6364L50.3163 26.84L41.1864 14.3ZM62.5264 15.62V14.3H82.2163V15.62H73.1964V39.93H71.6564V15.62H62.5264Z" fill="white"/>
<path d="M0.816406 14.2998H2.79643L30.0764 54.9998L18.7464 39.9298L2.46641 16.2798L2.35643 39.9298H0.816406V14.2998Z" fill="white"/>
<path d="M81.9964 38.1701C82.3264 38.1701 82.5464 37.9501 82.5464 37.6201C82.5464 37.2901 82.3264 37.0701 81.9964 37.0701C81.6664 37.0701 81.4464 37.2901 81.4464 37.6201C81.4464 37.9501 81.6664 38.1701 81.9964 38.1701ZM83.5364 36.7401C83.5364 37.7301 84.1964 38.2801 85.1864 38.2801C86.2864 38.2801 86.9464 37.6201 86.9464 36.5201V32.5601H86.0664V36.5201C86.0664 37.1801 85.7364 37.5101 85.1864 37.5101C84.7464 37.5101 84.3064 37.1801 84.3064 36.7401H83.5364ZM88.1564 36.6301C88.2664 37.6201 89.0364 38.2801 90.2464 38.2801C91.5664 38.2801 92.3364 37.6201 92.3364 36.5201C92.3364 35.6401 91.8964 35.2001 90.6864 34.9801L90.0264 34.8701C89.2564 34.6501 89.0364 34.4301 89.0364 34.1001C89.0364 33.5501 89.4764 33.2201 90.1364 33.2201C90.7964 33.2201 91.2364 33.5501 91.3464 34.1001H92.2264C92.2264 33.2201 91.3464 32.5601 90.2464 32.5601C89.0364 32.5601 88.2664 33.2201 88.2664 34.2101C88.2664 34.9801 88.7064 35.5301 89.6964 35.7501L90.4664 35.9701C91.2364 36.1901 91.5664 36.4101 91.5664 36.8501C91.5664 37.2901 91.0164 37.7301 90.3564 37.7301C89.5864 37.7301 89.1464 37.4001 89.0364 36.8501H88.1564V36.6301Z" fill="white"/>
</svg>
