<svg width="143" height="55" viewBox="0 0 143 55" fill="none" xmlns="http://www.w3.org/2000/svg">
<path fill-rule="evenodd" clip-rule="evenodd" d="M30.9652 29.1742C30.9652 28.6253 30.6359 28.0764 30.087 27.747L16.4742 19.8428C16.2546 19.733 16.035 19.6233 15.7057 19.6233H15.5959C15.3764 19.6233 15.047 19.733 14.8275 19.8428L1.21466 27.747C0.665754 28.0764 0.336426 28.6253 0.336426 29.1742V50.3618C0.336426 50.6911 0.446233 50.9107 0.775574 51.0205C0.995135 51.1302 1.32449 51.1302 1.54405 51.0205L9.66776 46.4097C10.2167 46.0804 10.546 45.5314 10.546 44.9825V35.1023C10.546 34.5534 10.8753 34.0045 11.3145 33.6752L14.7177 31.6991C14.9373 31.5893 15.2666 31.4795 15.5959 31.4795C15.9253 31.4795 16.1449 31.5893 16.3644 31.6991L19.7676 33.6752C20.3165 34.0045 20.6458 34.5534 20.6458 35.1023V44.9825C20.6458 45.5314 20.9751 46.0804 21.524 46.4097L29.6478 51.0205C29.8674 51.1302 30.1967 51.1302 30.5261 51.0205C30.7456 50.9107 30.9652 50.5813 30.9652 50.3618V29.1742ZM95.4063 40.262C95.4063 40.3718 95.2965 40.5913 95.1868 40.5913L90.4662 43.3358C90.3564 43.4456 90.1369 43.4456 90.0271 43.3358L85.3065 40.5913C85.1967 40.4815 85.087 40.3718 85.087 40.262V34.8827C85.087 34.773 85.1967 34.5534 85.3065 34.5534L90.0271 31.8089C90.1369 31.6991 90.3564 31.6991 90.4662 31.8089L95.1868 34.5534C95.2965 34.6632 95.4063 34.773 95.4063 34.8827V40.262ZM96.6139 0.0823353C96.3943 -0.0274451 96.065 -0.0274451 95.8454 0.0823353C95.6259 0.192116 95.4063 0.521455 95.4063 0.741016V21.7091C95.4063 21.9287 95.2965 22.1482 95.0769 22.258C94.8574 22.3678 94.6378 22.3678 94.528 22.258L91.1249 20.2819C90.576 19.9526 90.0271 19.9526 89.4782 20.2819L75.8654 28.1861C75.3165 28.5155 74.9871 29.0644 74.9871 29.6133V45.4217C74.9871 45.9706 75.3165 46.5195 75.8654 46.8488L89.4782 54.753C90.0271 55.0823 90.576 55.0823 91.1249 54.753L104.738 46.8488C105.287 46.5195 105.616 45.9706 105.616 45.4217V6.12026C105.616 5.57136 105.287 5.02246 104.738 4.69312L96.6139 0.0823353ZM142.063 34.6632C142.612 34.3338 142.831 33.7849 142.831 33.236V29.3937C142.831 28.8448 142.502 28.2959 142.063 27.9666L128.45 20.0624C127.901 19.733 127.352 19.733 126.804 20.0624L113.191 27.9666C112.642 28.2959 112.312 28.8448 112.312 29.3937V45.2021C112.312 45.751 112.642 46.2999 113.191 46.6293L126.804 54.3139C127.352 54.6432 127.901 54.6432 128.45 54.3139L136.684 49.7031C136.903 49.5933 137.123 49.264 137.123 48.9346C137.123 48.6053 137.013 48.3857 136.684 48.1662L122.961 40.262C122.742 40.1522 122.522 39.8229 122.522 39.6033V34.6632C122.522 34.3338 122.632 34.1143 122.961 33.8947L127.243 31.4795C127.462 31.3698 127.792 31.3698 128.011 31.4795L132.293 33.8947C132.512 34.0045 132.732 34.3338 132.732 34.5534V38.3957C132.732 38.7251 132.841 38.9446 133.171 39.1642C133.39 39.274 133.72 39.274 134.049 39.1642L142.063 34.6632Z" fill="white"/>
<path fill-rule="evenodd" clip-rule="evenodd" d="M127.462 33.8948C127.572 33.7851 127.682 33.7851 127.792 33.8948L130.426 35.4318C130.536 35.5415 130.536 35.5415 130.536 35.6513V38.7252C130.536 38.835 130.426 38.9447 130.426 38.9447L127.792 40.4817C127.682 40.5914 127.572 40.5914 127.462 40.4817L124.827 38.9447C124.718 38.835 124.718 38.835 124.718 38.7252V35.6513C124.718 35.5415 124.827 35.4318 124.827 35.4318L127.462 33.8948Z" fill="white"/>
<path d="M52.1528 20.1722L38.54 27.9666C37.9911 28.296 37.7715 28.8449 37.7715 29.3938V45.0924C37.7715 45.6413 38.1008 46.1902 38.54 46.5195L52.1528 54.3139C52.7017 54.6433 53.2506 54.6433 53.7995 54.3139L67.4123 46.5195C67.9612 46.1902 68.1807 45.6413 68.1807 45.0924V29.3938C68.1807 28.8449 67.8514 28.296 67.4123 27.9666L53.7995 20.1722C53.5799 20.0624 53.2505 19.9526 53.031 19.9526C52.8114 19.9526 52.3723 20.0624 52.1528 20.1722Z" fill="white"/>
</svg>
