<svg width="55" height="55" viewBox="0 0 55 55" fill="none" xmlns="http://www.w3.org/2000/svg">
<path d="M20.6747 26.4604H33.6862C37.2944 26.4604 40.2466 23.5082 40.2466 19.7906V7.32583C40.2466 3.82693 37.2944 1.09341 33.6862 0.546703C31.4994 0.218681 29.0939 0 26.9071 0C24.7203 0 22.5334 0.218681 20.6747 0.546703C15.2076 1.53077 14.1142 3.60825 14.1142 7.32583V12.2461H27.1257V13.8863H14.1142H9.19391C5.36699 13.8863 2.08677 16.1824 0.993368 20.4467C-0.209378 25.367 -0.209378 28.5379 0.993368 33.6769C1.86809 37.5038 4.16425 40.2373 7.88182 40.2373H12.4741V34.3329C12.4741 30.2873 16.1917 26.4604 20.6747 26.4604ZM19.7999 9.07528C18.4878 9.07528 17.3944 7.98186 17.3944 6.56043C17.3944 5.139 18.4878 4.04561 19.7999 4.04561C21.112 4.04561 22.2054 5.139 22.2054 6.56043C22.3148 7.98186 21.2214 9.07528 19.7999 9.07528Z" fill="white"/>
<path d="M53.2582 20.6654C52.2742 16.8385 50.5247 14.105 46.6978 14.105H41.7775V19.9C41.7775 24.383 37.9506 28.2099 33.5769 28.2099H20.6747C17.0665 28.2099 14.1143 31.2714 14.1143 34.8797V47.3445C14.1143 50.8434 17.1759 52.9209 20.6747 54.0143C24.8297 55.217 28.7659 55.4357 33.6863 54.0143C36.9665 53.0302 40.2467 51.1714 40.2467 47.3445V42.4242H27.1258V40.7841H40.1374H46.6978C50.5247 40.7841 51.9461 38.1599 53.2582 34.2236C54.5703 29.85 54.5703 25.9138 53.2582 20.6654ZM34.4517 45.4857C35.7637 45.4857 36.8571 46.5791 36.8571 48.0005C36.8571 49.422 35.7637 50.5154 34.4517 50.5154C33.1396 50.5154 32.0462 49.422 32.0462 48.0005C32.0462 46.5791 33.1396 45.4857 34.4517 45.4857Z" fill="white"/>
</svg>
