<svg width="62" height="55" viewBox="0 0 62 55" fill="none" xmlns="http://www.w3.org/2000/svg">
<path d="M34.771 31.4171C36.9182 29.2699 36.9182 25.7887 34.771 23.6415C32.6238 21.4944 29.1426 21.4944 26.9954 23.6415C24.8483 25.7887 24.8483 29.2699 26.9954 31.4171C29.1426 33.5642 32.6238 33.5642 34.771 31.4171Z" fill="white"/>
<path d="M61.8164 27.509C61.8164 23.2204 56.7581 19.4816 48.8407 17.1724C50.82 9.25497 50.1602 2.98702 46.4215 0.787745C42.6827 -1.41154 36.8546 1.11764 31.0265 6.83576C25.0884 1.11764 19.3703 -1.41154 15.6315 0.787745C11.8928 2.98702 11.233 9.25497 13.2123 17.1724C5.29494 19.4816 0.236572 23.2204 0.236572 27.509C0.236572 31.7976 5.29494 35.5364 13.2123 37.8456C11.233 45.763 11.8928 52.031 15.6315 54.2303C16.5112 54.7801 17.6109 55 18.7105 55C21.4596 55 24.7586 53.4605 28.3874 50.6014C29.2671 49.8317 30.1468 49.0619 31.0265 48.1822C31.9062 49.0619 32.7859 49.8317 33.6657 50.6014C37.2945 53.5705 40.5934 55 43.3425 55C44.4421 55 45.5417 54.7801 46.4215 54.2303C50.1602 52.031 50.82 45.763 48.8407 37.8456C56.6481 35.6463 61.8164 31.9076 61.8164 27.509ZM43.2325 2.7671C43.8923 2.7671 44.4421 2.87707 44.9919 3.20696C47.4111 4.63649 47.961 9.69483 46.2015 16.6226C43.6724 16.0727 40.9233 15.6329 37.9542 15.303C36.3048 12.8838 34.5453 10.6845 32.7859 8.81512C36.8546 4.85642 40.5934 2.7671 43.2325 2.7671ZM20.0301 33.8869C20.6899 34.9866 21.2397 35.9762 21.8995 36.9659C19.9201 36.746 18.0508 36.4161 16.4013 35.9762C16.9511 34.3268 17.6109 32.5673 18.3806 30.698C18.8205 31.7976 19.3703 32.7873 20.0301 33.8869ZM16.4013 19.1517C18.1607 18.7119 19.9201 18.492 21.8995 18.1621C21.2397 19.1517 20.6899 20.1414 20.0301 21.2411C19.3703 22.3407 18.8205 23.3304 18.2707 24.43C17.5009 22.5606 16.8411 20.8012 16.4013 19.1517ZM19.7002 27.509C20.47 25.8595 21.3497 24.2101 22.3393 22.5606C23.329 20.9112 24.3187 19.2617 25.3084 17.8322C27.0678 17.7222 28.9372 17.6122 30.9166 17.6122C32.8959 17.6122 34.7653 17.7222 36.5247 17.8322C37.5144 19.3717 38.5041 20.9112 39.4937 22.5606C40.4834 24.2101 41.3631 25.8595 42.1329 27.509C41.3631 29.1585 40.4834 30.8079 39.4937 32.4574C38.5041 34.1068 37.5144 35.6463 36.5247 37.1858C34.7653 37.2958 32.8959 37.4058 30.9166 37.4058C28.9372 37.4058 27.0678 37.2958 25.3084 37.1858C24.3187 35.6463 23.329 34.1068 22.3393 32.4574C21.3497 30.8079 20.47 29.1585 19.7002 27.509ZM41.803 33.8869C42.4628 32.7873 43.0126 31.7976 43.5624 30.698C44.3322 32.5673 44.9919 34.3268 45.5418 35.9762C43.7823 36.4161 42.0229 36.636 40.0436 36.9659C40.5934 35.9762 41.2532 34.8766 41.803 33.8869ZM41.803 21.2411C41.1432 20.1414 40.5934 19.1517 39.9336 18.1621C41.9129 18.382 43.7823 18.7119 45.4318 19.1517C44.882 20.8012 44.2222 22.5606 43.4524 24.43C43.0126 23.3304 42.4628 22.3407 41.803 21.2411ZM30.9166 10.6845C32.1262 12.0041 33.3358 13.4336 34.5454 14.9731C33.3358 14.9731 32.1262 14.8631 30.9166 14.8631C29.707 14.8631 28.4973 14.8631 27.2877 14.9731C28.4973 13.4336 29.707 12.0041 30.9166 10.6845ZM16.8411 3.20696C17.391 2.87707 17.9408 2.7671 18.6006 2.7671C21.2397 2.7671 24.9785 4.85642 29.0472 8.81512C27.2877 10.6845 25.5283 12.8838 23.8788 15.303C20.9098 15.5229 18.1607 15.9628 15.6315 16.6226C13.8721 9.69483 14.4219 4.52653 16.8411 3.20696ZM13.7622 35.3164C6.9444 33.3371 2.76576 30.3681 2.76576 27.619C2.76576 24.8699 6.9444 21.7909 13.7622 19.9215C14.5319 22.4507 15.5216 24.9798 16.7312 27.619C15.5216 30.2581 14.5319 32.7873 13.7622 35.3164ZM26.518 48.5121C22.4493 51.8111 18.9305 53.1306 16.8411 51.921C14.4219 50.4915 13.8721 45.4331 15.6315 38.5054C18.1607 39.0552 20.9098 39.4951 23.8788 39.825C25.5283 42.2442 27.2877 44.3335 29.0472 46.3128C28.1674 47.0826 27.3977 47.8523 26.518 48.5121ZM27.2877 40.0449C28.4973 40.0449 29.707 40.1549 30.9166 40.1549C32.1262 40.1549 33.3358 40.1549 34.5454 40.0449C33.3358 41.5844 32.1262 43.0139 30.9166 44.3335C29.707 43.0139 28.4973 41.5844 27.2877 40.0449ZM44.9919 51.921C42.9026 53.1306 39.3838 51.921 35.3151 48.5121C34.4354 47.8523 33.6656 47.0826 32.7859 46.2029C34.5453 44.2235 36.3048 42.1342 37.9542 39.715C40.9233 39.4951 43.6724 39.0552 46.2015 38.3954C47.961 45.4331 47.4111 50.4915 44.9919 51.921ZM48.0709 35.3164C47.3012 32.7873 46.3115 30.2581 45.1019 27.619C46.3115 24.9798 47.3012 22.3407 48.0709 19.9215C54.8887 21.9008 59.0673 24.8699 59.0673 27.619C59.0673 30.3681 54.8887 33.3371 48.0709 35.3164Z" fill="white"/>
</svg>
