<svg width="75" height="55" viewBox="0 0 75 55" fill="none" xmlns="http://www.w3.org/2000/svg">
<path d="M71.1576 33.8374C68.3788 31.6444 65.1554 31.3154 61.7096 31.6444C60.1535 31.8637 58.7085 32.3023 57.3746 32.8505C57.2635 32.9602 57.0412 32.9602 56.93 32.7409C56.152 31.2058 55.3739 29.7803 55.3739 28.0259C55.3739 26.6004 55.7074 25.3943 56.152 24.0785C56.3743 23.3109 56.2631 22.982 55.4851 22.8723C54.4847 22.653 53.4843 22.7627 52.4839 23.0916C52.0393 23.2013 51.817 23.4206 51.5947 23.9688C51.2613 24.9557 51.1501 25.9425 50.7055 26.8197C49.594 29.3417 48.149 31.754 46.704 34.0567C46.704 34.1663 46.5929 34.1663 46.5929 34.1663C45.7036 32.7409 45.3702 31.0961 45.3702 29.4514C45.3702 28.3549 45.8148 27.2583 46.1483 26.1618C46.3706 25.6136 46.2594 25.3943 45.7036 25.175C45.5925 25.175 45.4813 25.0653 45.259 25.0653C44.1475 24.9557 43.1471 24.9557 42.1468 25.2846C41.8133 25.3943 41.7021 25.5039 41.591 25.8329C41.1464 27.8066 40.2572 29.561 39.4791 31.3154C37.923 34.8243 36.3668 38.4427 34.5884 41.8419C34.4772 42.1709 34.2549 42.3902 34.0326 42.7191C33.9214 42.3902 33.9215 42.1709 33.9215 41.9516C33.9215 40.9647 34.1438 40.0875 34.3661 39.2103C34.8107 37.3462 35.3664 35.3725 35.811 33.5084C36.0333 32.6312 35.8111 32.1926 34.9218 31.9733C34.4772 31.8637 34.0326 31.8637 33.588 32.1926C33.4768 32.3023 33.4769 32.3023 33.3657 32.1926C33.2545 32.083 33.3657 32.083 33.3657 31.9733C33.588 31.0961 33.588 30.2189 33.2545 29.3417C32.9211 28.1356 32.143 27.697 31.0315 27.697C30.3646 27.697 29.8088 27.9162 29.253 28.1355C27.4746 29.0128 26.0296 30.2189 24.8069 31.754C24.6958 31.9733 24.5846 32.083 24.3623 32.1926C22.1393 33.3988 19.8051 34.605 17.582 35.9208C17.3597 36.0304 17.2486 36.0304 17.0262 35.8111C15.8036 34.6049 14.4697 33.5084 13.1359 32.5216C11.2463 31.0961 9.35673 29.7803 7.80059 28.0259C5.46638 25.5039 4.9106 22.653 6.35558 19.5828C7.35596 17.2801 9.02325 15.5257 10.9128 13.9906C14.4697 11.03 18.4712 8.83701 22.8062 7.08259C26.9188 5.32818 31.1426 4.34132 35.6999 4.56062C37.3672 4.67027 39.0345 4.99923 40.5906 5.76679C41.8133 6.42469 42.5914 7.41154 42.8137 8.837C42.9248 9.93351 42.7025 11.03 42.369 12.0169C41.3687 14.5388 39.5902 16.5126 37.4783 18.1573C34.4772 20.46 31.0315 21.8855 27.3634 22.5434C25.6961 22.8723 24.0289 22.982 22.2504 22.653C20.5831 22.3241 19.1381 21.7758 17.9155 20.46C17.8043 20.3503 17.582 20.131 17.3597 20.2407C17.1374 20.3503 17.1374 20.5696 17.1374 20.8986C17.2486 21.3372 17.3597 21.6662 17.582 21.9951C18.1378 22.8723 18.9158 23.4206 19.8051 23.9688C21.3612 24.846 23.1396 25.175 24.9181 25.2846C26.6965 25.3943 28.475 25.175 30.2534 24.846C34.1437 24.0785 37.8118 22.7627 40.9241 20.0214C44.0363 17.2801 46.3706 13.9906 46.704 9.60457C46.8152 8.06945 46.5928 6.53434 45.8148 5.10888C44.7033 3.13516 42.9248 1.929 40.8129 1.16145C38.0341 0.174589 35.1441 -0.154363 32.143 0.0649386C29.5865 0.174589 27.1411 0.722847 24.6958 1.4904C20.9166 2.69656 17.2486 4.34133 13.914 6.31504C10.1348 8.50806 6.5779 11.03 3.79909 14.4292C2.24295 16.2933 1.02027 18.267 0.464506 20.6793C0.353354 20.8986 0.464493 21.2275 0.242188 21.4468C0.242188 22.1048 0.242188 22.7627 0.242188 23.4206C0.575645 25.0653 1.24258 26.4908 2.24296 27.8066C3.79909 29.89 5.79981 31.5347 7.91171 33.0698C9.3567 34.1663 10.9128 35.1532 12.469 36.2497C13.1359 36.6883 13.8028 37.2366 14.4697 37.7848C14.3586 37.8945 14.2474 37.8945 14.2474 38.0041C13.1359 38.662 11.9132 39.2103 10.8017 39.8682C8.46748 41.2937 6.24442 42.7191 4.57713 44.8025C2.79869 46.9955 2.02063 49.5175 3.021 52.2587C3.46561 53.5745 4.35484 54.6711 5.91098 54.8904C6.24444 55 6.68905 54.8904 7.02251 55C7.13366 55 7.35596 55 7.46711 55C7.80057 54.8904 8.24518 54.8904 8.57864 55C8.68979 55 8.91209 55 9.02324 55C9.3567 54.7807 9.80131 54.8904 10.1348 54.7807C12.8024 54.2324 15.1366 52.9166 16.8039 50.8333C19.805 47.3244 20.472 43.2674 19.1381 38.8813C18.9158 38.2234 18.9159 38.2234 19.4716 37.7848C20.5831 37.1269 21.6947 36.469 22.8062 35.9208C22.8062 36.0304 22.8062 36.0304 22.8062 36.0304C22.8062 36.2497 22.695 36.3594 22.695 36.5787C22.1393 38.4427 21.8058 40.4164 22.0281 42.3902C22.2504 44.0349 22.695 45.57 23.5842 46.9955C24.3623 48.092 25.3627 48.5306 26.5854 48.2017C27.4746 47.9824 28.0303 47.2148 28.475 46.4472C29.3642 44.9121 30.0311 43.377 30.698 41.8419C30.698 41.8419 30.698 41.7323 30.8092 41.7323V41.8419C30.8092 41.9516 30.8092 41.9516 30.8092 42.0612C30.8092 42.2805 30.8092 42.4998 30.698 42.7191C30.5869 43.9253 30.5869 45.0218 31.0315 46.1183C31.4761 47.3244 32.6988 47.6534 33.6991 46.8858C34.4772 46.3376 35.033 45.6797 35.4776 44.9121C37.7006 41.0743 39.7014 37.1269 41.4798 32.9602C41.7021 32.4119 41.9244 31.9733 42.1468 31.4251C42.5914 33.5084 43.2583 35.4822 44.3698 37.3462C44.481 37.5655 44.481 37.6752 44.2586 37.8945C43.2583 39.3199 42.0356 40.6357 40.9241 42.0612C40.3683 42.7191 39.7014 43.377 39.2568 44.1446C38.701 45.0218 39.0345 45.899 40.0349 46.1183C40.3683 46.2279 40.7018 46.2279 40.9241 46.2279C42.7025 46.2279 44.3698 45.6797 45.8148 44.6928C47.2598 43.8156 48.2601 42.6095 48.4824 40.9647C48.7047 39.5392 48.3713 38.2234 47.8155 37.0173C47.7044 36.798 47.7044 36.5787 47.9267 36.3594C49.0382 34.7146 50.1498 32.9602 51.1501 31.2058C51.4836 30.5479 51.817 29.9996 52.2617 29.2321C52.484 30.3286 52.7062 31.2058 53.0397 32.1926C53.3732 33.1795 53.8178 34.0567 54.2624 34.9339C54.3735 35.1532 54.2624 35.1532 54.1512 35.2629C53.3732 35.9208 52.5951 36.6883 52.0393 37.4559C51.039 38.7717 50.2609 40.0875 50.0386 41.7323C49.9274 43.1577 50.9278 44.1446 52.2617 43.8156C54.2624 43.377 56.152 42.3902 57.4858 40.8551C58.2639 39.9778 58.8196 38.8813 58.7085 37.5655C58.7085 36.798 58.4862 36.1401 58.2639 35.4822C58.1527 35.1532 58.1527 34.9339 58.5973 34.8243C61.9319 33.7277 65.2665 33.8374 68.6011 34.9339C70.1572 35.4822 71.3799 36.469 72.2691 37.8945C73.1584 39.4296 73.0472 40.9647 72.0468 42.2805C71.7134 42.7191 71.1576 43.0481 70.713 43.377C70.4907 43.4867 70.2684 43.5963 70.3795 43.9253C70.4907 44.2542 70.8241 44.1446 71.0464 44.0349C72.8249 43.5963 74.381 41.6226 74.4922 39.8682C74.2699 37.3462 73.1584 35.3725 71.1576 33.8374ZM16.6928 42.4998C16.2482 46.0086 14.4697 48.5306 11.2463 50.1754C10.4682 50.5043 9.69018 50.7236 8.80096 50.7236C7.57828 50.7236 6.91135 50.1754 6.91135 48.9692C6.91135 47.763 7.35596 46.6665 8.02287 45.6797C8.80094 44.3639 10.0236 43.377 11.2463 42.4998C12.8024 41.2937 14.4697 40.1971 16.2482 39.2103C16.6928 40.1971 16.804 41.4033 16.6928 42.4998ZM31.5873 31.5347C31.3649 32.7409 31.0315 33.947 30.5869 35.0436C29.8088 37.3462 28.9196 39.6489 27.9192 41.8419C27.6969 42.3902 27.3634 42.8288 27.03 43.2674C26.6965 43.706 26.2519 43.706 26.0296 43.1577C25.585 42.2805 25.585 41.4033 25.585 40.5261C25.585 37.2366 26.8077 34.3856 28.8084 31.8637C29.253 31.3154 29.8088 30.8768 30.4757 30.6575C30.8092 30.5479 31.1426 30.4382 31.3649 30.6575C31.8095 30.9865 31.6984 31.3154 31.5873 31.5347ZM41.7022 43.8156C43.036 42.3902 44.2586 41.0743 45.3702 39.5392C45.7036 40.9647 43.3694 43.9253 41.7022 43.8156ZM53.8178 40.7454C53.4843 40.9647 53.1509 41.184 52.8174 41.2936C52.7063 41.2936 52.5951 41.5129 52.4839 41.2936C52.3728 41.184 52.3728 41.0744 52.4839 40.8551C52.7062 40.0875 52.9286 39.3199 53.3732 38.662C53.9289 37.7848 54.5958 36.9076 55.3739 36.2497C55.8185 37.7848 55.2628 39.7585 53.8178 40.7454Z" fill="white"/>
</svg>
