<svg width="56" height="55" viewBox="0 0 56 55" fill="none" xmlns="http://www.w3.org/2000/svg">
<path d="M28.2316 0C13.0951 0 0.731567 12.3634 0.731567 27.5C0.731567 42.6366 13.0951 55 28.2316 55C43.3681 55 55.7316 42.6366 55.7316 27.5C55.7316 12.3634 43.3681 0 28.2316 0ZM20.49 42.0588C17.4858 42.6366 14.9438 41.7122 14.2505 39.1702C14.0194 38.2458 13.9039 37.2059 13.9039 36.2815C13.7883 35.2416 13.9039 34.2017 13.9039 33.1618C13.6728 30.2731 13.3261 29.3487 10.553 29.2332V25.7668C10.7841 25.7668 10.8996 25.6513 11.1307 25.6513C12.6328 25.5357 13.2106 25.0735 13.5572 23.687C13.6728 22.8781 13.7883 22.0693 13.7883 21.145C13.9039 19.5273 13.9039 17.9097 14.135 16.292C14.4816 13.9811 15.9837 12.8256 18.2946 12.7101C18.9879 12.7101 19.6811 12.7101 20.3744 12.7101V15.8298C20.0278 15.8298 19.7967 15.9454 19.4501 15.9454C17.4858 15.8298 17.3703 16.5231 17.2547 18.1408C17.1392 19.1807 17.2547 20.105 17.2547 21.145C17.1392 22.1849 17.0236 23.1093 16.908 24.1492C16.6769 25.5357 15.7526 26.5756 14.5971 27.5C16.908 29.0021 17.2547 31.4286 17.3702 33.855C17.4858 35.126 17.3703 36.5126 17.6013 37.7836C17.7169 38.8235 18.0635 39.0546 19.1034 39.0546C19.5656 39.0546 19.9123 39.0546 20.49 39.0546V42.0588ZM23.1475 27.6156C23.032 28.771 22.1076 29.5798 21.0677 29.4643H20.9521C19.7967 29.4643 18.9879 28.4244 18.9879 27.3844C18.9879 26.229 20.0278 25.4202 21.0677 25.4202C22.3387 25.5357 23.2631 26.3445 23.1475 27.6156ZM28.2316 29.4643C26.9606 29.4643 26.1517 28.6555 26.1517 27.5C26.1517 27.3845 26.1517 27.3845 26.1517 27.2689C26.1517 26.229 27.0761 25.3046 28.116 25.4202C29.387 25.4202 30.1958 26.229 30.1958 27.3844C30.1958 28.6555 29.3871 29.4643 28.2316 29.4643ZM35.2799 29.4643C35.1643 29.4643 35.1643 29.4643 35.2799 29.4643C34.1244 29.4643 33.2001 28.5399 33.2001 27.3844C33.2001 26.229 34.1244 25.3046 35.2799 25.4202C36.4354 25.4202 37.3597 26.3445 37.3597 27.5C37.2442 28.6555 36.2043 29.6954 35.2799 29.4643ZM45.7946 29.2332C45.679 29.2332 45.448 29.3487 45.3324 29.3487C43.5992 29.4643 42.7904 30.1576 42.6749 31.8908C42.5593 33.0462 42.5593 34.0861 42.4438 35.2416C42.4438 36.3971 42.3282 37.6681 42.0971 38.8235C41.635 41.0189 40.2484 42.0588 38.053 42.1744C37.3597 42.1744 36.6664 42.1744 35.8576 42.1744V39.0546C36.3198 39.0546 36.6664 39.0546 37.0131 38.9391C38.3996 38.9391 38.8618 38.4769 38.8618 37.0903C38.9773 35.5882 38.9774 34.2017 38.9774 32.6996C39.0929 30.6197 39.6706 28.6555 41.6349 27.3844C40.4795 26.5756 39.6706 25.6513 39.324 24.2647C39.0929 22.6471 38.9774 21.0294 38.7463 19.4118C38.6307 18.6029 38.6308 17.7941 38.6308 16.9853C38.5152 16.0609 37.9374 15.8298 37.1286 15.8298C36.6664 15.8298 36.2042 15.8298 35.6265 15.8298V12.7101C39.324 12.1324 41.866 13.2878 42.0971 16.8698C42.2127 18.3719 42.2126 19.8739 42.3282 21.376C42.3282 22.1849 42.4438 22.9937 42.6749 23.8025C43.0215 25.0735 43.5992 25.4202 44.9858 25.5357C45.2169 25.5357 45.4479 25.5357 45.679 25.6513V29.2332H45.7946Z" fill="white"/>
</svg>
