<svg width="92" height="55" viewBox="0 0 92 55" fill="none" xmlns="http://www.w3.org/2000/svg">
<path fill-rule="evenodd" clip-rule="evenodd" d="M46.1204 0C33.9348 0 26.2501 6.16 23.1763 18.37C27.787 12.21 33.0565 9.90001 39.2042 11.44C42.7172 12.32 45.2421 14.85 47.8768 17.71C52.3778 22.33 57.5375 27.61 68.9547 27.61C81.1403 27.61 88.825 21.45 91.8988 9.24001C87.2881 15.4 82.0186 17.71 75.8709 16.17C72.3579 15.29 69.833 12.76 67.1982 9.9C62.6972 5.28 57.5376 0 46.1204 0ZM23.1763 27.39C10.9906 27.39 3.30603 33.55 0.232178 45.76C4.84296 39.6 10.1124 37.29 16.2601 38.83C19.7731 39.71 22.298 42.24 24.9328 45.1C29.4338 49.72 34.5934 55 46.0106 55C58.1962 55 65.8809 48.84 68.9547 36.63C64.3439 42.79 59.0745 45.1 52.9268 43.56C49.4138 42.68 46.8888 40.15 44.2541 37.29C39.7531 32.78 34.5934 27.39 23.1763 27.39Z" fill="white"/>
</svg>
