<svg width="56" height="55" viewBox="0 0 56 55" fill="none" xmlns="http://www.w3.org/2000/svg">
<path d="M0.236572 0V55H55.2366V0H0.236572ZM32.1366 30.47H25.2066V50.16H19.7066V30.47H12.8866V26.07H32.1366V30.47ZM49.9566 46.64C49.4066 47.52 48.7466 48.29 47.8666 48.84C46.9866 49.39 45.9966 49.83 44.7866 50.05C43.5766 50.27 42.3666 50.38 41.1566 50.38C39.8366 50.38 38.6266 50.27 37.4166 50.05C36.2066 49.83 35.2166 49.5 34.3366 49.06V43.67C35.3266 44.44 36.3166 45.1 37.5266 45.54C38.6266 45.98 39.8366 46.2 40.9366 46.2C41.5966 46.2 42.2566 46.09 42.6966 45.98C43.2466 45.87 43.6866 45.65 44.0166 45.43C44.3466 45.21 44.5666 44.99 44.7866 44.66C45.0066 44.33 45.0066 44 45.0066 43.67C45.0066 43.23 44.8966 42.79 44.5666 42.46C44.3466 42.13 43.9066 41.8 43.4666 41.47C43.0266 41.14 42.4766 40.81 41.8166 40.59C41.1566 40.26 40.4966 40.04 39.7266 39.71C37.8566 38.94 36.4266 37.95 35.5466 36.85C34.6666 35.75 34.1166 34.32 34.1166 32.78C34.1166 31.57 34.3366 30.47 34.8866 29.59C35.4366 28.71 36.0966 27.94 36.9766 27.39C37.8566 26.84 38.8466 26.4 39.9466 26.07C41.0466 25.74 42.2566 25.63 43.5766 25.63C44.7866 25.63 45.9966 25.74 46.8766 25.85C47.7566 25.96 48.7466 26.18 49.5166 26.51V31.57C49.0766 31.24 48.6366 31.02 48.1966 30.8C47.7566 30.58 47.2066 30.36 46.7666 30.25C46.2166 30.14 45.7766 30.03 45.2266 29.92C44.6766 29.81 44.2366 29.81 43.7966 29.81C43.1366 29.81 42.5866 29.92 42.1466 30.03C41.5966 30.14 41.2666 30.36 40.8266 30.58C40.4966 30.8 40.1666 31.02 40.0566 31.35C39.8366 31.68 39.7266 32.01 39.7266 32.34C39.7266 32.78 39.8366 33.11 40.0566 33.44C40.2766 33.77 40.6066 34.1 40.9366 34.32C41.3766 34.65 41.8166 34.87 42.3666 35.2C42.9166 35.42 43.5766 35.75 44.2366 36.08C45.2266 36.52 46.1066 36.96 46.8766 37.4C47.6466 37.84 48.3066 38.39 48.8566 38.94C49.4066 39.49 49.8466 40.15 50.0666 40.92C50.3966 41.69 50.5066 42.46 50.5066 43.45C50.7266 44.55 50.5066 45.76 49.9566 46.64Z" fill="white"/>
</svg>
