<?xml version="1.0" encoding="utf-8"?>
<!-- Generator: Adobe Illustrator 25.3.0, SVG Export Plug-In . SVG Version: 6.00 Build 0)  -->
<svg version="1.1" id="Calque_1" xmlns="http://www.w3.org/2000/svg" xmlns:xlink="http://www.w3.org/1999/xlink" x="0px" y="0px"
	 viewBox="0 0 1000 1000" style="enable-background:new 0 0 1000 1000;" xml:space="preserve">
<style type="text/css">
	.st0{fill:#32CD32;}
</style>
<path class="st0" d="M250,500c0,116.5,79.6,214.3,187.4,242.1c-83.2-150.7-83.2-333.5,0-484.2C329.6,285.7,250,383.6,250,500z"/>
<path class="st0" d="M937.6,257.9c-27.2-49.1-62.5-93.2-104.3-130.6c-51.4,5.6-101.1,22-145.8,47.9c-39.8,23.1-75.1,53.3-104.1,89.1
	c-111.2,137.5-111.2,334,0,471.5c29,35.8,64.3,65.9,104.1,89c44.7,25.9,94.4,42.3,145.8,47.9c41.8-37.4,77-81.6,104.3-130.6
	C1020.8,591.4,1020.8,408.6,937.6,257.9L937.6,257.9z M687.5,665.4c-91.4-103.5-81.5-261.5,22.1-352.9c24-21.2,51.9-37.6,82-48.2
	c111.2,137.5,111.2,334,0,471.5C751.5,721.5,715.7,697.3,687.5,665.4z"/>
<path class="st0" d="M500,875c-207.1,0-375-167.9-375-375s167.9-375,375-375c13.9,0,27.9,0.8,41.7,2.3c43-38.5,92.3-69.3,145.8-90.9
	C627.9,12.3,564.3-0.1,500,0C223.9,0,0,223.9,0,500s223.9,500,500,500c64.3,0.1,127.9-12.3,187.5-36.4
	C634,942,584.7,911.2,541.7,872.7C527.9,874.2,513.9,875,500,875z"/>
</svg>
